<svg xmlns="http://www.w3.org/2000/svg" width="25" height="25" viewBox="0 0 25 25">
  <metadata><?xpacket begin="﻿" id="W5M0MpCehiHzreSzNTczkc9d"?>
<x:xmpmeta xmlns:x="adobe:ns:meta/" x:xmptk="Adobe XMP Core 5.6-c138 79.159824, 2016/09/14-01:09:01        ">
   <rdf:RDF xmlns:rdf="http://www.w3.org/1999/02/22-rdf-syntax-ns#">
      <rdf:Description rdf:about=""/>
   </rdf:RDF>
</x:xmpmeta>
<?xpacket end="w"?></metadata>
<defs>
    <style>
      .cls-1 {
        fill: #6d7e6b;
        fill-rule: evenodd;
      }
    </style>
  </defs>
  <path id="Фигура_24" data-name="Фигура 24" class="cls-1" d="M1164.66,2459.34a12.5,12.5,0,1,1,17.68,0A12.524,12.524,0,0,1,1164.66,2459.34Zm16.87-16.87a11.356,11.356,0,1,0,0,16.06A11.365,11.365,0,0,0,1181.53,2442.47Zm-11.8,13.96-2.16-2.16,3.77-3.77-3.77-3.77,2.16-2.16,3.77,3.77,3.77-3.77,2.16,2.16-3.77,3.77,3.77,3.77-2.16,2.16-3.77-3.77Z" transform="translate(-1161 -2438)"/>
</svg>
